<svg aria-hidden="true" style="position:absolute;width:0;height:0;overflow:hidden" xmlns="http://www.w3.org/2000/svg">
  <defs>
    <symbol id="icon-success-filled" viewBox="0 0 32 32">
      <path fill="#00b068" style="fill:var(--color1, #00b068)" d="M16 2c7.732 0 14 6.268 14 14s-6.268 14-14 14S2 23.732 2 16 8.268 2 16 2zm-1.744 16.762-3.11-3.112a1.201 1.201 0 0 0-1.698 1.698l3.96 3.96a1.195 1.195 0 0 0 1.698 0l8.2-8.202a1.2 1.2 0 1 0-1.696-1.698l-7.354 7.354z"/>
    </symbol>
    <symbol id="icon-email" viewBox="0 0 32 32">
      <path fill="none" stroke="#00b068" style="stroke:var(--color1, #00b068)" stroke-linejoin="round" stroke-linecap="round" stroke-width="1.333" d="M29 9v14a3.004 3.004 0 0 1-3 3H6a3.004 3.004 0 0 1-3-3V9m26 0a3.004 3.004 0 0 0-3-3H6a3.004 3.004 0 0 0-3 3m26 0v.324a2.998 2.998 0 0 1-1.427 2.555l-10 6.153a3.004 3.004 0 0 1-3.146 0l-10-6.152A3.001 3.001 0 0 1 3 9.325V9"/>
    </symbol>
    <symbol id="icon-address" viewBox="0 0 32 32">
      <path fill="none" stroke="#00b068" style="stroke:var(--color1, #00b068)" stroke-linejoin="round" stroke-linecap="round" stroke-width="1.333" d="M20 14a4.003 4.003 0 0 1-4 4 4.003 4.003 0 0 1-4-4 4.003 4.003 0 0 1 4-4 4.003 4.003 0 0 1 4 4v0z"/>
      <path fill="none" stroke="#00b068" style="stroke:var(--color1, #00b068)" stroke-linejoin="round" stroke-linecap="round" stroke-width="1.333" d="M26 14c0 9.523-10 15-10 15S6 23.523 6 14a10.001 10.001 0 0 1 20 0v0z"/>
    </symbol>
    <symbol id="icon-phone" viewBox="0 0 32 32">
      <path fill="none" stroke="#00b068" style="stroke:var(--color1, #00b068)" stroke-linejoin="round" stroke-linecap="round" stroke-width="1.333" d="M3 9c0 11.045 8.955 20 20 20h3a3.004 3.004 0 0 0 3-3v-1.829a1.5 1.5 0 0 0-1.136-1.455l-5.897-1.475a1.498 1.498 0 0 0-1.564.556l-1.293 1.724c-.376.501-1.025.723-1.613.507a16.028 16.028 0 0 1-9.524-9.524c-.216-.588.005-1.237.507-1.613l1.724-1.293c.484-.361.703-.979.556-1.564L9.285 4.137A1.498 1.498 0 0 0 7.83 3.001H6.001a3.004 3.004 0 0 0-3 3v3z"/>
    </symbol>
  </defs>
</svg>
